<svg width="1440" height="494" viewBox="0 0 1440 494" fill="none" xmlns="http://www.w3.org/2000/svg">
<path d="M-614.014 175.166C-462.854 192.739 -352.96 184.521 -280.072 173.558C-206.367 162.472 -151.921 145.746 -57.5473 148.007C46.5597 150.389 111.974 168.692 137.669 177.068C173.293 188.691 170.464 191.919 228.174 214.573C339.031 258.095 362.437 251.304 411.314 275.899C492.356 316.671 460.817 351.831 542.998 411.085C602.508 454.006 705.295 497.74 804.57 496.898C898.057 496.102 914.746 456.407 1011.31 467.057C1050.98 471.431 1082.82 482.447 1146.48 504.475C1228.08 532.633 1281.67 559.23 1303.26 569.052C1367.23 598.174 1473.17 627.855 1654.32 623.492" stroke="url(#paint0_linear_252_4371)" stroke-miterlimit="10"/>
<path d="M-617.065 188.565C-470.987 206.419 -358.88 201.164 -279.573 190.461C-215.106 181.501 -164.922 168.14 -97.9819 163.96C-83.3425 163.057 -67.9647 162.39 -51.5114 162.361C52.1642 162.202 117.932 176.543 145.296 183.096C181.996 191.869 181.574 194.574 238.146 216.656C278.019 232.203 306.603 242.087 328.832 249.172C366.62 261.207 385.899 264.912 414.769 280.493C425.547 286.275 435.49 292.793 444.403 299.919C485.629 332.862 478.737 364.406 548.362 411.132C608.966 451.807 711.511 492.363 809.115 491.358C816.848 491.276 824.511 490.922 832.073 490.3C908.391 483.996 930.071 453.463 1014.96 462.743C1023.9 463.713 1032.83 465.083 1041.69 466.847C1071.47 472.708 1101.59 482.997 1149.26 499.469C1228.22 526.84 1280.99 552.947 1304.8 563.783C1322.24 571.676 1340.41 578.646 1359.12 584.619C1423.84 605.409 1517.23 622.54 1652.54 621.388" stroke="url(#paint1_linear_252_4371)" stroke-miterlimit="10"/>
<path d="M-620.31 203.114C-479.33 221.215 -364.926 219.136 -279.246 208.388C-211.207 199.864 -158.678 185.777 -92.8093 180.621C-77.7728 179.428 -62.2029 178.28 -45.6177 177.853C57.6297 175.142 123.881 184.101 152.806 190.279C190.071 198.272 192.61 198.414 247.955 219.896C286.702 234.959 315.062 245.514 336.744 253.234C373.28 266.199 391.13 270.621 417.97 286.247C428.19 292.245 437.646 298.845 446.195 305.948C485.912 338.439 483.392 368.752 553.579 412.427C615.281 450.849 717.584 488.234 813.517 487.067C821.648 486.912 829.184 486.654 836.31 486.013C914.991 479.762 936.702 450.845 1018.47 459.768C1027.35 460.711 1036.21 462.049 1045.01 463.773C1075.3 469.611 1105.39 479.748 1151.88 495.929C1228.25 522.459 1280.14 548.118 1306.21 559.821C1323.51 567.641 1341.51 574.585 1360.02 580.587C1424.11 601.474 1516.89 619.566 1650.53 620.558" stroke="url(#paint2_linear_252_4371)" stroke-miterlimit="10"/>
<path d="M-623.699 218.614C-487.824 237.026 -371.16 237.911 -279.071 227.338C-207.532 219.111 -152.601 204.386 -87.8464 198.23C-72.3898 196.752 -56.6072 195.143 -39.9333 194.295C62.8824 189.065 129.03 195.663 160.11 198.408C198.56 201.817 203.442 203.205 257.584 224.096C295.256 238.654 323.389 249.898 344.639 258.271C379.903 272.149 396.365 277.327 421.177 292.986C430.757 299.193 439.666 305.865 447.811 312.933C486.022 344.961 488.013 374.058 558.583 414.647C621.474 450.84 723.442 485.065 817.709 483.72C825.771 483.553 833.261 483.287 840.334 482.684C921.344 476.403 943.147 449.167 1021.77 457.575C1030.59 458.493 1039.39 459.799 1048.13 461.486C1078.95 467.286 1109.1 477.321 1154.36 493.125C1228.08 518.797 1279.15 544.005 1307.43 556.694C1324.64 564.419 1342.48 571.337 1360.81 577.39C1424.26 598.376 1516.45 617.447 1648.39 620.562" stroke="url(#paint3_linear_252_4371)" stroke-miterlimit="10"/>
<path d="M-627.121 234.113C-496.324 252.811 -377.449 256.679 -278.925 246.27C-203.86 238.327 -146.548 222.945 -82.8659 215.827C-67.0119 214.059 -51.0371 211.97 -34.2309 210.725C68.1466 203.022 134.278 205.799 167.429 206.563C206.598 207.462 214.196 208.009 267.227 228.327C303.909 242.444 331.685 254.308 352.464 263.282C386.459 278.058 401.506 284.018 424.316 299.699C433.238 306.102 441.605 312.843 449.361 319.879C486.095 351.422 492.594 379.323 563.555 416.926C627.638 450.881 729.247 481.961 821.869 480.459C829.839 480.276 837.283 480.002 844.328 479.425C927.688 473.132 949.514 447.717 1025.03 455.525C1033.79 456.44 1042.54 457.714 1051.22 459.342C1082.51 465.113 1112.59 475.006 1156.8 490.467C1227.91 515.323 1278.14 540.094 1308.64 553.722C1325.73 561.378 1343.41 568.275 1361.55 574.362C1424.4 595.469 1515.99 615.489 1646.25 620.76" stroke="url(#paint4_linear_252_4371)" stroke-miterlimit="10"/>
<path d="M-629.682 243.994C-503.956 262.993 -382.845 269.865 -277.906 259.609C-199.332 251.926 -139.606 235.831 -77.0032 227.808C-60.7717 225.73 -44.5678 223.228 -27.6444 221.535C74.2533 211.346 140.428 210.391 175.577 209.053C215.473 207.553 225.943 207.162 277.702 226.909C306.283 237.836 334.141 249.814 361.133 262.781C393.93 278.462 407.512 285.231 428.264 300.859C437.323 307.705 444.293 314.534 451.927 321.321C487.194 352.342 498.208 379.178 569.508 413.736C634.856 445.475 736.062 473.442 827.019 471.776C834.921 471.581 842.319 471.299 849.314 470.745C935.044 464.484 956.932 440.614 1029.32 448.039C1038.01 448.941 1046.68 450.189 1055.31 451.776C1087.11 457.56 1117.18 467.283 1160.18 482.339C1228.68 506.347 1278.07 530.735 1310.78 545.309C1327.76 552.899 1345.3 559.778 1363.28 565.9C1425.5 587.14 1516.46 608.151 1645.06 615.551" stroke="url(#paint5_linear_252_4371)" stroke-miterlimit="10"/>
<path d="M-631.908 250.946C-511.269 270.218 -387.918 280.085 -276.542 270.012C-194.458 262.586 -132.357 245.735 -70.8037 236.916C-54.1692 234.517 -37.7791 231.576 -20.7201 229.469C80.8074 216.853 147.048 212.181 184.176 208.704C224.721 204.866 238.052 203.456 288.635 222.639C316.977 233.389 344.277 245.648 370.237 259.282C401.752 275.828 413.955 283.456 432.677 299.165C440.993 306.107 447.31 313.061 454.867 319.903C488.672 350.538 504.269 376.032 575.836 407.713C642.502 437.222 743.279 462.11 832.576 460.264C840.386 460.053 847.717 459.76 854.707 459.235C942.801 453.049 964.815 430.774 1033.97 437.834C1042.6 438.71 1051.22 439.928 1059.79 441.482C1092.07 447.243 1122.16 456.836 1163.96 471.602C1229.84 494.816 1278.39 518.779 1313.35 534.344C1330.21 541.861 1347.59 548.721 1365.38 554.886C1427 576.271 1517.37 598.285 1644.3 607.804" stroke="url(#paint6_linear_252_4371)" stroke-miterlimit="10"/>
<path d="M-634.084 258.024C-518.542 277.63 -392.986 290.429 -275.127 280.547C-189.552 273.359 -125.095 255.717 -64.5765 246.01C-47.534 243.258 -30.9119 239.887 -13.7447 237.391C87.362 222.367 153.704 214.041 192.76 208.303C234.196 202.228 250.167 199.713 299.55 218.328C327.692 228.989 354.454 241.613 379.337 255.962C409.527 273.336 420.367 281.889 437.096 297.578C444.599 304.618 450.316 311.661 457.765 318.598C490.147 348.743 510.378 373.027 582.172 401.789C650.183 429.039 750.46 450.845 838.024 448.838C845.766 448.615 853.051 448.313 859.993 447.796C950.469 441.579 972.441 420.92 1038.58 427.493C1047.14 428.358 1055.69 429.544 1064.2 431.047C1097.01 436.717 1127.06 446.248 1167.67 460.694C1230.97 483.071 1278.64 506.649 1315.85 523.161C1332.6 530.624 1349.83 537.478 1367.45 543.688C1428.44 565.153 1518.21 588.171 1643.45 599.869" stroke="url(#paint7_linear_252_4371)" stroke-miterlimit="10"/>
<path d="M-636.288 265.14C-525.816 285.053 -398.036 300.821 -273.74 291.123C-184.651 284.178 -117.835 265.728 -58.3428 255.227C-40.9452 252.16 -24.0755 248.408 -6.80417 245.397C93.9048 227.966 160.395 215.988 201.356 207.984C243.634 199.676 262.273 196.026 310.48 214.076C338.412 224.641 364.647 237.586 388.452 252.546C417.498 270.797 426.767 280.24 441.505 295.907C448.215 303.065 453.382 310.174 460.7 317.203C491.657 346.872 516.483 369.891 588.497 395.774C657.906 420.722 757.652 439.499 843.623 437.325C851.297 437.09 858.536 436.78 865.426 436.3C958.289 430.163 980.277 411.053 1043.31 417.188C1051.81 418.041 1060.31 419.198 1068.76 420.652C1102.08 426.272 1132.21 435.73 1171.59 449.817C1232.24 471.377 1279.09 494.563 1318.52 512.034C1335.15 519.449 1352.22 526.305 1369.66 532.572C1430.04 554.226 1519.22 578.19 1642.79 592.043" stroke="url(#paint8_linear_252_4371)" stroke-miterlimit="10"/>
<path d="M-638.489 272.235C-533.08 292.41 -403.029 311.144 -272.296 301.646C-179.599 294.944 -110.558 275.647 -52.0517 264.389C-34.269 260.965 -17.1743 256.827 0.20986 253.395C100.491 233.596 167.149 217.982 210.005 207.626C253.205 197.174 274.454 192.317 321.461 209.796C349.197 220.315 374.905 233.62 397.581 249.191C425.399 268.258 433.179 278.668 445.927 294.299C451.845 301.575 456.396 308.723 463.718 315.882C493.298 345.068 522.779 366.735 594.952 389.818C665.765 412.432 764.951 428.202 849.283 425.866C856.866 425.615 864.06 425.297 870.91 424.92C966.141 418.844 988.168 401.29 1048.05 407.009C1056.51 407.822 1064.96 408.951 1073.37 410.39C1107.18 416.082 1137.23 425.299 1175.54 439.007C1233.58 459.754 1279.57 482.543 1321.26 500.977C1336.32 507.646 1353.08 514.563 1371.96 521.424C1431.72 543.203 1520.31 568.173 1642.19 584.165" stroke="url(#paint9_linear_252_4371)" stroke-miterlimit="10"/>
<path d="M-640.658 279.126C-540.436 299.605 -408.138 321.32 -270.925 312.045C-174.826 305.551 -103.373 285.407 -45.8305 273.411C-27.6855 269.624 -10.3454 265.119 7.15641 261.237C107.102 239.081 173.972 219.849 218.56 207.127C262.696 194.437 286.517 188.458 332.347 205.369C359.919 215.852 385.135 229.51 406.693 245.641C433.327 265.547 439.432 276.91 450.333 292.498C455.458 299.891 459.436 307.101 466.559 314.34C494.766 343.011 528.866 363.412 601.186 383.627C673.506 403.842 772.054 416.65 854.723 414.149C862.238 413.886 869.386 413.56 876.191 413.174C973.813 407.163 995.878 391.168 1052.7 396.47C1061.08 397.259 1069.45 398.359 1077.78 399.765C1112.16 405.418 1142.14 414.519 1179.16 427.919C1234.61 447.84 1279.72 470.243 1323.66 489.626C1338.66 496.258 1355.29 503.14 1373.93 510.043C1433.06 531.947 1521.06 557.91 1641.26 576.077" stroke="url(#paint10_linear_252_4371)" stroke-miterlimit="10"/>
<path d="M-642.793 285.938C-547.577 306.768 -413.159 331.384 -269.467 322.347C-169.79 316.139 -96.1403 295.031 -39.5725 282.357C-21.0399 278.196 -3.45659 273.339 14.2087 269.013C113.775 244.475 180.872 221.669 227.184 206.483C272.323 191.735 298.767 184.453 343.235 200.78C372.761 211.622 398.569 227.94 415.785 241.925C441.261 262.645 445.893 275.029 454.74 290.537C459.026 298.04 462.454 305.317 469.444 312.662C496.306 340.791 534.969 359.836 607.469 377.263C681.164 395.022 779.205 404.932 860.211 402.266C867.634 401.987 874.737 401.653 881.52 401.263C981.512 395.298 1003.59 380.859 1057.24 385.74C1065.56 386.509 1073.87 387.579 1082.15 388.944C1116.99 394.524 1146.98 403.54 1182.95 416.626C1235.78 435.73 1279.98 457.722 1326.17 478.072C1341.11 484.65 1357.59 491.529 1375.98 498.438C1434.51 520.487 1521.91 547.443 1640.43 567.725" stroke="url(#paint11_linear_252_4371)" stroke-miterlimit="10"/>
<path d="M-644.936 292.664C-554.794 313.817 -418.231 341.169 -268.017 332.551C-164.976 326.358 -88.914 304.557 -33.2675 291.166C-14.3906 286.608 3.5021 281.426 21.1936 276.631C120.458 249.816 187.825 223.313 235.841 205.781C282.015 188.916 310.818 180.379 354.294 196.152C382.789 206.541 408.365 223.456 425.024 238.167C449.342 259.703 452.252 273.048 459.271 288.532C462.787 296.157 465.624 303.461 472.504 310.918C498.01 338.579 541.321 356.172 613.957 370.939C689.148 386.212 786.561 393.247 865.906 390.401C873.267 390.121 880.317 389.777 887.056 389.369C989.458 383.504 1011.56 370.594 1062.08 375.06C1070.33 375.8 1078.58 376.838 1086.79 378.17C1122.13 383.715 1152.15 392.63 1186.95 405.365C1237.14 423.633 1280.52 445.31 1329 466.57C1343.87 473.125 1360.2 479.95 1378.37 486.889C1436.27 509.078 1523.07 537.029 1639.92 559.507" stroke="url(#paint12_linear_252_4371)" stroke-miterlimit="10"/>
<path d="M-647.065 299.29C-562.014 320.733 -423.203 351.077 -266.55 342.66C-159.993 336.711 -81.6408 313.945 -26.9529 299.925C-7.73644 294.999 10.4019 289.448 28.234 284.204C127.178 255.075 194.92 224.953 244.496 204.952C291.752 185.96 323.014 176.12 365.197 191.318C392.685 201.241 418.052 218.773 434.102 234.234C457.309 256.594 458.49 270.934 463.616 286.365C466.222 294.104 468.626 301.478 475.353 309.023C499.694 336.186 547.391 353.861 620.383 364.406C697.123 375.491 793.854 381.346 871.56 378.338C878.845 378.045 885.842 377.691 892.55 377.277C997.371 371.607 1019.46 360.114 1066.86 364.165C1075.04 364.89 1083.23 365.902 1091.39 367.199C1127.23 372.724 1157.34 381.519 1190.87 393.854C1238.33 411.363 1280.94 432.747 1331.66 454.88C1346.47 461.397 1362.66 468.202 1380.57 475.164C1437.87 497.496 1524.08 526.443 1639.24 551.086" stroke="url(#paint13_linear_252_4371)" stroke-miterlimit="10"/>
<path d="M-649.274 305.834C-569.291 327.555 -428.259 360.921 -265.163 352.69C-155.09 346.986 -74.5865 323.245 -20.7309 308.538C-1.1014 303.226 17.2755 297.352 35.189 291.586C133.866 260.101 201.808 226.419 253.106 203.961C301.532 182.886 335.286 171.84 376.317 186.456C402.775 195.909 427.934 214.042 443.4 230.258C465.499 253.412 464.884 268.735 468.255 284.122C469.997 291.982 471.925 299.404 478.515 307.071C501.417 333.688 553.77 348.356 626.801 357.768C704.734 367.859 801.118 369.329 877.16 366.155C884.264 365.82 891.368 365.485 897.991 365.066C1005.18 359.443 1027.34 349.505 1071.6 353.156C1079.72 353.851 1087.85 354.832 1095.94 356.095C1132.28 361.586 1162.29 370.259 1194.74 382.289C1239.72 398.922 1281.39 419.812 1334.33 442.986C1349.1 449.469 1365.19 456.182 1382.9 463.254C1439.58 485.634 1525.21 515.658 1638.58 542.452" stroke="url(#paint14_linear_252_4371)" stroke-miterlimit="10"/>
<path d="M-651.266 312.344C-576.383 334.4 -433.143 370.726 -263.561 362.705C-149.88 357.263 -67.2816 332.458 -14.3665 317.155C5.51827 311.413 24.2917 305.259 42.2725 299.061C140.787 265.457 208.931 227.898 261.692 202.981C311.188 179.709 347.25 167.425 387.259 181.527C412.688 190.508 437.685 209.252 452.545 226.205C473.546 250.248 471.103 266.455 472.714 281.829C473.521 289.814 475.02 297.276 481.455 305.046C503.077 331.143 560.005 344.229 633.156 351.079C712.461 358.573 808.364 357.261 882.723 353.902C889.827 353.567 896.771 353.204 903.376 352.907C1012.96 347.334 1035.12 338.897 1076.28 342.136C1084.39 342.839 1092.5 343.83 1100.59 345.103C1134.31 350.09 1167.43 358.757 1198.64 370.757C1240.99 386.568 1281.82 407.057 1337.01 431.201C1351.71 437.63 1367.64 444.365 1385.05 451.405C1466.48 484.017 1551.13 511.645 1637.84 533.913" stroke="url(#paint15_linear_252_4371)" stroke-miterlimit="10"/>
<path d="M-653.366 318.797C-583.556 341.162 -438.09 380.485 -262.064 372.651C-144.957 367.438 -60.1185 341.689 -7.94885 325.744C223.622 254.872 310.343 145.851 398.375 176.546C422.774 185.056 447.608 204.41 461.838 222.111C492.232 259.889 466.26 280.025 484.564 302.986C529.436 359.292 772.398 347.325 908.945 340.607C1042.08 334.051 1048.29 325.568 1105.11 333.871C1204.31 348.326 1251.55 383.741 1387.31 439.417C1468.05 472.431 1551.67 501.137 1637.31 525.238" stroke="url(#paint16_linear_252_4371)" stroke-miterlimit="10"/>
<path d="M-654.082 323.471C-582.519 347.088 -441.452 384.407 -273.166 376.881C-156.996 371.619 -75.444 344.918 -19.5338 328.343C203.792 262.255 285.658 162.89 376.174 188.747C411.539 198.844 446.854 212.901 469.125 228.915C512.881 260.398 492.052 278.138 516.637 301.505C570.456 352.688 796.528 344.981 926.372 339.614C1052.87 334.293 1058.98 327.634 1118.56 339.55C1217.56 359.348 1262.94 391.3 1390.74 444.284C1470.47 477.33 1553.48 505.568 1638.64 528.623" stroke="url(#paint17_linear_252_4371)" stroke-miterlimit="10"/>
<path d="M-654.827 328.334C-535.579 368.305 -407.47 386.612 -284.295 381.285C-169.064 375.988 -90.9304 348.283 -31.145 331.118C183.702 269.502 262.114 178.334 353.971 201.119C400.577 212.692 444.76 221.241 476.382 235.906C530.644 261.011 516.981 276.05 548.68 300.219C609.246 346.355 820.63 342.817 943.795 338.803C1063.45 334.682 1069.51 329.696 1132 345.406C1230.6 370.177 1274.27 399.184 1394.13 449.339C1472.85 482.401 1555.21 510.168 1639.86 532.183" stroke="url(#paint18_linear_252_4371)" stroke-miterlimit="10"/>
<path d="M-656.149 336.728C-540.495 376.3 -415.797 394.48 -295.969 389.239C-181.695 383.887 -106.954 355.174 -43.3179 337.426C162.675 279.992 237.038 207.96 331.194 216.978C390.096 222.623 441.292 233.391 483.115 246.39C546.312 266.016 540.693 277.383 580.197 302.448C645.595 343.942 844.211 344.353 960.656 341.526C1073.63 338.787 1079.44 335.137 1144.89 354.778C1243.09 384.244 1285.05 410.582 1397.02 457.948C1474.73 491.058 1556.48 518.373 1640.62 539.343" stroke="url(#paint19_linear_252_4371)" stroke-miterlimit="10"/>
<path d="M-658.161 349.332C-546.105 388.507 -424.814 406.55 -308.338 401.372C-194.992 395.951 -123.665 366.217 -56.1551 347.898C140.878 294.434 213.376 230.175 307.786 236.964C377.923 242.019 440.548 242.004 489.175 261.003C556.088 287.144 558.523 288.571 611.045 308.826C671.14 353.155 867.138 350.005 976.904 348.418C1083.15 346.941 1088.73 344.616 1157.17 368.34C1254.94 402.238 1295.18 426.227 1399.27 470.76C1475.98 503.924 1557.12 530.795 1640.74 550.718" stroke="url(#paint20_linear_252_4371)" stroke-miterlimit="10"/>
<path d="M-660.22 362.228C-551.769 401.018 -433.887 418.97 -320.727 413.927C-208.314 408.469 -140.417 377.662 -69.0128 358.792C118.902 309.115 189.596 251.934 284.197 257.346C365.747 262.029 434.676 258.967 495.214 276.053C573.275 298.079 580.805 296.06 641.873 315.638C705.738 356.897 889.997 355.943 992.974 355.702C1092.49 355.488 1097.89 354.339 1169.27 382.297C1266.79 420.44 1305.12 442.3 1401.36 483.972C1477.07 517.193 1557.63 543.623 1640.71 562.494" stroke="url(#paint21_linear_252_4371)" stroke-miterlimit="10"/>
<path d="M-662.32 375.368C-557.493 413.73 -443.045 431.56 -333.236 426.635C-221.752 421.123 -157.332 389.235 -81.9892 369.836C96.7566 323.812 165.704 273.345 260.788 277.931C353.491 282.403 428.483 285.885 501.139 291.238C590.855 297.842 602.975 303.666 672.588 322.582C740.322 360.882 912.822 362.106 1009.23 363.187C1102.01 364.237 1107.24 364.172 1181.55 396.457C1278.63 438.645 1315.19 458.631 1403.52 497.384C1478.23 530.656 1558.21 556.647 1640.75 574.472" stroke="url(#paint22_linear_252_4371)" stroke-miterlimit="10"/>
<path d="M-664.446 388.676C-581.772 419.942 -467.554 445.48 -345.706 439.539C-235.107 434.138 -174.226 400.968 -94.9496 381.07C74.4862 338.551 141.791 294.583 237.234 298.683C341.293 303.166 424.429 304.312 507.103 306.618C606.119 309.362 628.703 303.192 703.344 329.719C780.681 357.201 935.614 368.496 1025.34 370.833C1111.4 373.131 1116.51 374.114 1193.69 410.767C1290.68 456.919 1325.14 475.163 1405.77 510.986C1455.89 533.255 1531.91 564.197 1640.87 586.64" stroke="url(#paint23_linear_252_4371)" stroke-miterlimit="10"/>
<path d="M-666.61 402.215C-582.082 434.736 -472.352 458.307 -358.233 452.653C-248.567 447.215 -191.193 412.862 -107.944 392.519C52.081 353.393 117.537 315.734 213.669 319.656C329.075 324.353 420.534 323.083 513.012 322.21C621.572 321.18 650.206 311.02 734.045 337.063C813.952 361.936 958.369 374.97 1041.44 378.695C1120.82 382.25 1125.99 384.091 1205.83 425.312C1302.74 475.324 1335 491.966 1407.86 524.785C1457.22 547.019 1532.08 577.766 1640.85 599.02" stroke="url(#paint24_linear_252_4371)" stroke-miterlimit="10"/>
<path d="M-668.799 415.906C-582.36 449.773 -477.175 471.287 -370.788 465.937C-262.054 460.46 -208.231 424.9 -120.966 404.135C29.594 368.3 93.2804 336.904 190.053 340.797C316.896 345.896 416.72 342.09 518.896 337.971C637.181 333.212 671.652 319.368 764.723 344.572C847.302 366.932 981.089 381.686 1057.49 386.719C1130.06 391.478 1135.44 394.219 1217.91 440.022C1314.89 493.858 1344.8 508.981 1409.94 538.754C1458.55 560.973 1532.18 591.578 1640.81 611.554" stroke="url(#paint25_linear_252_4371)" stroke-miterlimit="10"/>
<path d="M-671.02 429.799C-582.814 464.876 -482.004 484.457 -383.373 479.406C-275.569 473.876 -225.335 437.055 -134.018 415.935C6.99712 383.301 68.5135 350.436 166.431 362.131C305.252 378.706 412.943 361.313 524.751 353.918C652.851 345.46 700.249 313.738 795.373 352.264C874.826 384.5 1003.7 388.476 1073.54 394.929C1139.33 400.946 1144.94 404.482 1229.99 454.907C1327.12 512.521 1354.52 526.238 1411.99 552.908C1459.82 575.125 1532.29 605.55 1640.73 624.29" stroke="url(#paint26_linear_252_4371)" stroke-miterlimit="10"/>
<path d="M-673.313 444.136C-583.258 480.503 -486.923 498.038 -396.021 493.417C-289.169 487.829 -242.562 449.675 -147.155 428.271C-15.6275 398.77 43.976 373.246 142.701 384C292.989 400.341 409.173 381.104 530.546 370.405C668.554 358.261 719.554 324.532 825.966 360.49C910.369 389.024 1026.38 395.933 1089.49 403.668C1148.53 410.901 1154.56 415.249 1241.97 470.341C1339.37 531.71 1364.16 544.081 1413.98 567.607C1461.01 589.832 1532.32 620.048 1640.6 637.555" stroke="url(#paint27_linear_252_4371)" stroke-miterlimit="10"/>
<path d="M-675.751 459.36C-583.868 497.015 -492.019 512.565 -408.809 508.144C-302.886 502.503 -259.964 462.94 -160.408 441.322C-38.6123 414.864 19.3005 396.77 118.879 406.591C280.705 422.555 405.334 401.636 536.206 387.617C684.245 371.759 739.193 336.976 856.426 369.437C945.568 394.12 1048.85 404.004 1105.35 413.123C1157.6 421.551 1164.12 426.707 1253.86 486.499C1351.58 551.607 1373.72 562.72 1415.84 583.042C1462.07 605.323 1532.35 635.309 1640.34 651.56" stroke="url(#paint28_linear_252_4371)" stroke-miterlimit="10"/>
<path d="M-678.23 474.847C-584.497 513.796 -497.128 527.33 -421.654 523.228C-316.658 517.516 -277.476 476.44 -173.717 454.727C-61.5736 431.25 -5.49609 420.613 94.9771 429.54C268.276 444.941 401.488 422.519 541.814 405.172C700.019 385.636 759.209 350.493 886.837 378.719C980.501 399.433 1071.3 412.384 1121.14 422.925C1166.58 432.514 1173.7 438.47 1265.68 503.01C1363.86 571.868 1382.99 581.799 1417.64 598.835C1463.01 621.209 1532.08 650.898 1640.03 665.921" stroke="url(#paint29_linear_252_4371)" stroke-miterlimit="10"/>
<path d="M-680.929 491.684C-585.342 531.915 -502.51 543.343 -434.714 539.648C-330.69 533.718 -295.296 491.131 -187.239 469.464C-84.7861 448.914 -30.5254 445.774 70.887 453.829C255.594 468.499 397.478 444.761 547.125 424.041C715.316 400.791 778.93 372.459 916.955 389.308C1015.31 401.329 1093.43 422.068 1136.65 434.042C1175.37 444.774 1183.09 451.561 1277.24 520.831C1375.9 593.466 1392.04 602.159 1419.17 615.924C1463.59 638.49 1531.66 667.813 1639.43 681.598" stroke="url(#paint30_linear_252_4371)" stroke-miterlimit="10"/>
<path d="M-683.6 508.358C-586.185 549.882 -507.813 559.31 -447.727 555.923C-344.655 549.934 -313.206 505.478 -200.738 484.051C-107.992 466.381 -55.5762 470.771 46.7959 477.972C242.91 491.77 393.517 466.848 552.664 442.816C731.052 415.854 800.588 385.269 947.303 399.797C1049.2 409.921 1115.86 431.551 1152.36 445.034C1184.36 456.9 1192.75 464.499 1288.97 538.546C1388.23 614.934 1401.22 622.498 1420.91 632.929C1464.2 655.856 1531.45 684.607 1639.06 697.158" stroke="url(#paint31_linear_252_4371)" stroke-miterlimit="10"/>
<path d="M-686.274 525.052C-587.074 567.848 -512.981 575.321 -460.765 572.199C-358.712 566.139 -331.239 519.557 -214.238 498.642C-131.191 483.794 -80.6517 495.776 22.726 502.131C230.157 514.881 389.589 488.889 558.091 461.564C746.674 430.904 822.326 398.033 977.542 410.253C1083.36 418.593 1138.27 440.954 1167.99 456.017C1193.35 468.871 1202.31 477.405 1300.64 556.256C1400.53 636.418 1410.23 642.877 1422.54 649.903C1464.18 673.668 1531.12 701.4 1638.58 712.716" stroke="url(#paint32_linear_252_4371)" stroke-miterlimit="10"/>
<defs>
<linearGradient id="paint0_linear_252_4371" x1="-610.172" y1="150.509" x2="1672.6" y2="506.168" gradientUnits="userSpaceOnUse">
<stop stop-color="#F4C4F3"/>
<stop offset="1" stop-color="#FC67FA"/>
</linearGradient>
<linearGradient id="paint1_linear_252_4371" x1="-611.309" y1="151.647" x2="1670.32" y2="507.38" gradientUnits="userSpaceOnUse">
<stop stop-color="#F4C4F3"/>
<stop offset="1" stop-color="#FC67FA"/>
</linearGradient>
<linearGradient id="paint2_linear_252_4371" x1="-612.458" y1="152.783" x2="1668.01" y2="508.552" gradientUnits="userSpaceOnUse">
<stop stop-color="#F4C4F3"/>
<stop offset="1" stop-color="#FC67FA"/>
</linearGradient>
<linearGradient id="paint3_linear_252_4371" x1="-613.601" y1="153.914" x2="1665.7" y2="509.661" gradientUnits="userSpaceOnUse">
<stop stop-color="#F4C4F3"/>
<stop offset="1" stop-color="#FC67FA"/>
</linearGradient>
<linearGradient id="paint4_linear_252_4371" x1="-614.758" y1="154.929" x2="1663.45" y2="510.634" gradientUnits="userSpaceOnUse">
<stop stop-color="#F4C4F3"/>
<stop offset="1" stop-color="#FC67FA"/>
</linearGradient>
<linearGradient id="paint5_linear_252_4371" x1="-615.927" y1="155.87" x2="1661.33" y2="511.304" gradientUnits="userSpaceOnUse">
<stop stop-color="#F4C4F3"/>
<stop offset="1" stop-color="#FC67FA"/>
</linearGradient>
<linearGradient id="paint6_linear_252_4371" x1="-617.217" y1="156.755" x2="1659.27" y2="511.824" gradientUnits="userSpaceOnUse">
<stop stop-color="#F4C4F3"/>
<stop offset="1" stop-color="#FC67FA"/>
</linearGradient>
<linearGradient id="paint7_linear_252_4371" x1="-618.429" y1="157.588" x2="1657.1" y2="512.27" gradientUnits="userSpaceOnUse">
<stop stop-color="#F4C4F3"/>
<stop offset="1" stop-color="#FC67FA"/>
</linearGradient>
<linearGradient id="paint8_linear_252_4371" x1="-619.665" y1="158.422" x2="1655.14" y2="512.758" gradientUnits="userSpaceOnUse">
<stop stop-color="#F4C4F3"/>
<stop offset="1" stop-color="#FC67FA"/>
</linearGradient>
<linearGradient id="paint9_linear_252_4371" x1="-620.91" y1="159.307" x2="1653.22" y2="513.309" gradientUnits="userSpaceOnUse">
<stop stop-color="#F4C4F3"/>
<stop offset="1" stop-color="#FC67FA"/>
</linearGradient>
<linearGradient id="paint10_linear_252_4371" x1="-622.15" y1="160.152" x2="1650.96" y2="513.77" gradientUnits="userSpaceOnUse">
<stop stop-color="#F4C4F3"/>
<stop offset="1" stop-color="#FC67FA"/>
</linearGradient>
<linearGradient id="paint11_linear_252_4371" x1="-623.372" y1="161.02" x2="1648.74" y2="514.261" gradientUnits="userSpaceOnUse">
<stop stop-color="#F4C4F3"/>
<stop offset="1" stop-color="#FC67FA"/>
</linearGradient>
<linearGradient id="paint12_linear_252_4371" x1="-624.619" y1="161.902" x2="1646.86" y2="514.83" gradientUnits="userSpaceOnUse">
<stop stop-color="#F4C4F3"/>
<stop offset="1" stop-color="#FC67FA"/>
</linearGradient>
<linearGradient id="paint13_linear_252_4371" x1="-625.863" y1="162.749" x2="1644.79" y2="515.337" gradientUnits="userSpaceOnUse">
<stop stop-color="#F4C4F3"/>
<stop offset="1" stop-color="#FC67FA"/>
</linearGradient>
<linearGradient id="paint14_linear_252_4371" x1="-627.2" y1="163.598" x2="1642.71" y2="515.866" gradientUnits="userSpaceOnUse">
<stop stop-color="#F4C4F3"/>
<stop offset="1" stop-color="#FC67FA"/>
</linearGradient>
<linearGradient id="paint15_linear_252_4371" x1="-628.335" y1="164.501" x2="1640.56" y2="516.413" gradientUnits="userSpaceOnUse">
<stop stop-color="#F4C4F3"/>
<stop offset="1" stop-color="#FC67FA"/>
</linearGradient>
<linearGradient id="paint16_linear_252_4371" x1="-629.584" y1="165.38" x2="1638.59" y2="516.99" gradientUnits="userSpaceOnUse">
<stop stop-color="#F4C4F3"/>
<stop offset="1" stop-color="#FC67FA"/>
</linearGradient>
<linearGradient id="paint17_linear_252_4371" x1="-631.228" y1="176.105" x2="1638.72" y2="528.132" gradientUnits="userSpaceOnUse">
<stop stop-color="#F4C4F3"/>
<stop offset="1" stop-color="#FC67FA"/>
</linearGradient>
<linearGradient id="paint18_linear_252_4371" x1="-632.874" y1="186.834" x2="1638.76" y2="539.263" gradientUnits="userSpaceOnUse">
<stop stop-color="#F4C4F3"/>
<stop offset="1" stop-color="#FC67FA"/>
</linearGradient>
<linearGradient id="paint19_linear_252_4371" x1="-634.547" y1="197.506" x2="1638.92" y2="550.273" gradientUnits="userSpaceOnUse">
<stop stop-color="#F4C4F3"/>
<stop offset="1" stop-color="#FC67FA"/>
</linearGradient>
<linearGradient id="paint20_linear_252_4371" x1="-636.245" y1="208.068" x2="1639.14" y2="561.071" gradientUnits="userSpaceOnUse">
<stop stop-color="#F4C4F3"/>
<stop offset="1" stop-color="#FC67FA"/>
</linearGradient>
<linearGradient id="paint21_linear_252_4371" x1="-637.959" y1="218.711" x2="1639.25" y2="571.931" gradientUnits="userSpaceOnUse">
<stop stop-color="#F4C4F3"/>
<stop offset="1" stop-color="#FC67FA"/>
</linearGradient>
<linearGradient id="paint22_linear_252_4371" x1="-639.669" y1="229.308" x2="1639.46" y2="582.756" gradientUnits="userSpaceOnUse">
<stop stop-color="#F4C4F3"/>
<stop offset="1" stop-color="#FC67FA"/>
</linearGradient>
<linearGradient id="paint23_linear_252_4371" x1="-641.381" y1="239.915" x2="1639.79" y2="593.604" gradientUnits="userSpaceOnUse">
<stop stop-color="#F4C4F3"/>
<stop offset="1" stop-color="#FC67FA"/>
</linearGradient>
<linearGradient id="paint24_linear_252_4371" x1="-643.092" y1="250.499" x2="1640.02" y2="604.409" gradientUnits="userSpaceOnUse">
<stop stop-color="#F4C4F3"/>
<stop offset="1" stop-color="#FC67FA"/>
</linearGradient>
<linearGradient id="paint25_linear_252_4371" x1="-644.806" y1="261.087" x2="1640.24" y2="615.217" gradientUnits="userSpaceOnUse">
<stop stop-color="#F4C4F3"/>
<stop offset="1" stop-color="#FC67FA"/>
</linearGradient>
<linearGradient id="paint26_linear_252_4371" x1="-646.521" y1="271.68" x2="1640.46" y2="626.028" gradientUnits="userSpaceOnUse">
<stop stop-color="#F4C4F3"/>
<stop offset="1" stop-color="#FC67FA"/>
</linearGradient>
<linearGradient id="paint27_linear_252_4371" x1="-648.244" y1="282.298" x2="1640.71" y2="636.86" gradientUnits="userSpaceOnUse">
<stop stop-color="#F4C4F3"/>
<stop offset="1" stop-color="#FC67FA"/>
</linearGradient>
<linearGradient id="paint28_linear_252_4371" x1="-649.964" y1="292.836" x2="1640.96" y2="647.593" gradientUnits="userSpaceOnUse">
<stop stop-color="#F4C4F3"/>
<stop offset="1" stop-color="#FC67FA"/>
</linearGradient>
<linearGradient id="paint29_linear_252_4371" x1="-651.69" y1="303.406" x2="1641.2" y2="658.358" gradientUnits="userSpaceOnUse">
<stop stop-color="#F4C4F3"/>
<stop offset="1" stop-color="#FC67FA"/>
</linearGradient>
<linearGradient id="paint30_linear_252_4371" x1="-653.427" y1="313.965" x2="1641.37" y2="669.076" gradientUnits="userSpaceOnUse">
<stop stop-color="#F4C4F3"/>
<stop offset="1" stop-color="#FC67FA"/>
</linearGradient>
<linearGradient id="paint31_linear_252_4371" x1="-655.163" y1="324.525" x2="1641.74" y2="679.836" gradientUnits="userSpaceOnUse">
<stop stop-color="#F4C4F3"/>
<stop offset="1" stop-color="#FC67FA"/>
</linearGradient>
<linearGradient id="paint32_linear_252_4371" x1="-656.899" y1="335.089" x2="1642" y2="690.584" gradientUnits="userSpaceOnUse">
<stop stop-color="#F4C4F3"/>
<stop offset="1" stop-color="#FC67FA"/>
</linearGradient>
</defs>
</svg>
